solid Default
  facet normal -7.839935e-08 3.941374e-07 1.000000e+00
    outer loop
      vertex 3.389921e+01 -3.455275e+01 1.778041e+00
      vertex 1.582623e+01 -7.418164e+00 1.778029e+00
      vertex 1.259144e+01 -8.061608e+00 1.778029e+00
    endloop
  endfacet
  facet normal -2.193383e-06 -7.427202e-07 1.000000e+00
    outer loop
      vertex 3.389921e+01 -3.455275e+01 1.778041e+00
      vertex 2.040091e+01 -2.843492e+00 1.778035e+00
      vertex 1.856855e+01 -5.585790e+00 1.778029e+00
    endloop
  endfacet
  facet normal -3.081849e-07 -6.130206e-08 1.000000e+00
    outer loop
      vertex 3.389918e+01 3.455275e+01 1.778041e+00
      vertex 2.040091e+01 3.626099e+00 1.778035e+00
      vertex 2.104435e+01 3.913157e-01 1.778035e+00
    endloop
  endfacet
  facet normal 1.768084e-06 -1.181395e-06 -1.000000e+00
    outer loop
      vertex -6.620848e+00 -5.585815e+00 1.816750e-05
      vertex -4.788488e+00 -2.843492e+00 1.816750e-05
      vertex 3.389918e+01 3.455275e+01 4.239082e-05
    endloop
  endfacet
  facet normal -2.063933e-07 3.088871e-07 1.000000e+00
    outer loop
      vertex 1.582623e+01 -7.418164e+00 1.778029e+00
      vertex 3.389921e+01 -3.455275e+01 1.778041e+00
      vertex 1.856855e+01 -5.585790e+00 1.778029e+00
    endloop
  endfacet
  facet normal -2.176839e-06 -7.537708e-07 1.000000e+00
    outer loop
      vertex -2.040743e+01 3.626075e+00 1.778004e+00
      vertex -1.857508e+01 6.368398e+00 1.778010e+00
      vertex -3.389831e+01 3.455275e+01 1.777998e+00
    endloop
  endfacet
  facet normal -5.383553e-07 1.070855e-07 1.000000e+00
    outer loop
      vertex 3.389921e+01 -3.455275e+01 1.778041e+00
      vertex -4.145051e+00 3.912915e-01 1.778016e+00
      vertex -4.788489e+00 -2.843492e+00 1.778016e+00
    endloop
  endfacet
  facet normal -2.888136e-07 4.322371e-07 1.000000e+00
    outer loop
      vertex 3.389921e+01 -3.455275e+01 1.778041e+00
      vertex -6.620849e+00 -5.585815e+00 1.778016e+00
      vertex -9.363170e+00 -7.418188e+00 1.778016e+00
    endloop
  endfacet
  facet normal 2.193389e-06 7.427203e-07 -1.000000e+00
    outer loop
      vertex 1.856855e+01 -5.585790e+00 3.027916e-05
      vertex 2.040091e+01 -2.843492e+00 3.633499e-05
      vertex 3.389918e+01 -3.455275e+01 4.239082e-05
    endloop
  endfacet
  facet normal 2.105946e-07 3.151792e-07 -1.000000e+00
    outer loop
      vertex 1.856854e+01 6.368422e+00 3.027916e-05
      vertex 1.582622e+01 8.200771e+00 3.027916e-05
      vertex 3.389918e+01 3.455275e+01 4.239082e-05
    endloop
  endfacet
  facet normal 2.063933e-07 -3.088874e-07 -1.000000e+00
    outer loop
      vertex 3.389918e+01 -3.455275e+01 4.239082e-05
      vertex 1.582623e+01 -7.418164e+00 3.027916e-05
      vertex 1.856855e+01 -5.585790e+00 3.027916e-05
    endloop
  endfacet
  facet normal -7.753524e-07 -1.542272e-07 1.000000e+00
    outer loop
      vertex -3.389831e+01 3.455275e+01 1.777998e+00
      vertex 4.781971e+00 -2.843492e+00 1.778023e+00
      vertex 4.138528e+00 3.913157e-01 1.778023e+00
    endloop
  endfacet
  facet normal -8.044815e-08 -4.044375e-07 1.000000e+00
    outer loop
      vertex 3.389918e+01 3.455275e+01 1.778041e+00
      vertex 1.259143e+01 8.844215e+00 1.778029e+00
      vertex 1.582622e+01 8.200771e+00 1.778029e+00
    endloop
  endfacet
  facet normal -2.129307e-06 -1.293084e-06 1.000000e+00
    outer loop
      vertex -3.389831e+01 3.455275e+01 1.777998e+00
      vertex -1.259797e+01 8.844191e+00 1.778010e+00
      vertex -9.363178e+00 8.200747e+00 1.778016e+00
    endloop
  endfacet
  facet normal -2.193850e-06 7.424050e-07 1.000000e+00
    outer loop
      vertex -3.389829e+01 -3.455275e+01 1.777998e+00
      vertex -1.857506e+01 -5.585815e+00 1.778010e+00
      vertex -2.040743e+01 -2.843516e+00 1.778004e+00
    endloop
  endfacet
  facet normal 2.106216e-07 -3.152195e-07 -1.000000e+00
    outer loop
      vertex -1.583276e+01 8.200747e+00 1.211166e-05
      vertex -1.857508e+01 6.368398e+00 1.211166e-05
      vertex -3.389832e+01 3.455275e+01 1.421085e-14
    endloop
  endfacet
  facet normal 8.045210e-08 -4.044570e-07 -1.000000e+00
    outer loop
      vertex -3.389832e+01 3.455275e+01 1.421085e-14
      vertex -1.259797e+01 8.844191e+00 1.211166e-05
      vertex -1.583276e+01 8.200747e+00 1.211166e-05
    endloop
  endfacet
  facet normal 7.751688e-07 -1.541905e-07 -1.000000e+00
    outer loop
      vertex -4.788488e+00 -2.843492e+00 1.816750e-05
      vertex -4.145050e+00 3.912915e-01 1.816750e-05
      vertex 3.389918e+01 3.455275e+01 4.239082e-05
    endloop
  endfacet
  facet normal 4.081283e-07 2.727028e-07 -1.000000e+00
    outer loop
      vertex -4.788492e+00 3.626075e+00 1.816750e-05
      vertex -6.620855e+00 6.368398e+00 1.816750e-05
      vertex 3.389918e+01 3.455275e+01 4.239082e-05
    endloop
  endfacet
  facet normal 4.046138e-07 2.703548e-07 -1.000000e+00
    outer loop
      vertex 4.781973e+00 -2.843492e+00 2.422333e-05
      vertex 6.614338e+00 -5.585815e+00 2.422333e-05
      vertex -3.389831e+01 -3.455275e+01 0.000000e+00
    endloop
  endfacet
  facet normal 2.888370e-07 4.322783e-07 -1.000000e+00
    outer loop
      vertex 6.614338e+00 -5.585815e+00 2.422333e-05
      vertex 9.356663e+00 -7.418164e+00 2.422333e-05
      vertex -3.389831e+01 -3.455275e+01 0.000000e+00
    endloop
  endfacet
  facet normal -2.120409e-06 -1.248324e-06 1.000000e+00
    outer loop
      vertex 9.356660e+00 -7.418164e+00 1.778023e+00
      vertex 3.389921e+01 -3.455275e+01 1.778041e+00
      vertex 1.259144e+01 -8.061608e+00 1.778029e+00
    endloop
  endfacet
  facet normal -1.769046e-06 -1.182040e-06 1.000000e+00
    outer loop
      vertex 6.614336e+00 -5.585815e+00 1.778023e+00
      vertex 4.781971e+00 -2.843492e+00 1.778023e+00
      vertex -3.389831e+01 3.455275e+01 1.777998e+00
    endloop
  endfacet
  facet normal -5.403139e-07 1.074748e-07 1.000000e+00
    outer loop
      vertex 4.138528e+00 3.913157e-01 1.778023e+00
      vertex 4.781965e+00 3.626099e+00 1.778023e+00
      vertex -3.389831e+01 3.455275e+01 1.777998e+00
    endloop
  endfacet
  facet normal -2.129453e-06 1.293819e-06 1.000000e+00
    outer loop
      vertex 9.356644e+00 8.200771e+00 1.778023e+00
      vertex 1.259143e+01 8.844215e+00 1.778029e+00
      vertex 3.389918e+01 3.455275e+01 1.778041e+00
    endloop
  endfacet
  facet normal -2.176362e-06 7.540844e-07 1.000000e+00
    outer loop
      vertex 1.856854e+01 6.368422e+00 1.778029e+00
      vertex 2.040091e+01 3.626099e+00 1.778035e+00
      vertex 3.389918e+01 3.455275e+01 1.778041e+00
    endloop
  endfacet
  facet normal -4.045641e-07 2.703208e-07 1.000000e+00
    outer loop
      vertex 3.389921e+01 -3.455275e+01 1.778041e+00
      vertex -4.788489e+00 -2.843492e+00 1.778016e+00
      vertex -6.620849e+00 -5.585815e+00 1.778016e+00
    endloop
  endfacet
  facet normal 1.218993e-06 1.824365e-06 1.000000e+00
    outer loop
      vertex -3.389831e+01 3.455275e+01 1.777998e+00
      vertex -9.363178e+00 8.200747e+00 1.778016e+00
      vertex -6.620855e+00 6.368398e+00 1.778016e+00
    endloop
  endfacet
  facet normal -7.840342e-08 -3.941564e-07 1.000000e+00
    outer loop
      vertex -3.389829e+01 -3.455275e+01 1.777998e+00
      vertex -1.259796e+01 -8.061632e+00 1.778010e+00
      vertex -1.583274e+01 -7.418188e+00 1.778010e+00
    endloop
  endfacet
  facet normal -3.058776e-07 -6.084280e-08 1.000000e+00
    outer loop
      vertex -3.389829e+01 -3.455275e+01 1.777998e+00
      vertex -2.040743e+01 -2.843516e+00 1.778004e+00
      vertex -2.105087e+01 3.912915e-01 1.778004e+00
    endloop
  endfacet
  facet normal 5.402241e-07 1.074579e-07 -1.000000e+00
    outer loop
      vertex 3.389918e+01 3.455275e+01 4.239082e-05
      vertex -4.145050e+00 3.912915e-01 1.816750e-05
      vertex -4.788492e+00 3.626075e+00 1.816750e-05
    endloop
  endfacet
  facet normal 2.176364e-06 -7.540853e-07 -1.000000e+00
    outer loop
      vertex 3.389918e+01 3.455275e+01 4.239082e-05
      vertex 2.040091e+01 3.626099e+00 3.633499e-05
      vertex 1.856854e+01 6.368422e+00 3.027916e-05
    endloop
  endfacet
  facet normal 3.057639e-07 -6.081976e-08 -1.000000e+00
    outer loop
      vertex 3.389918e+01 -3.455275e+01 4.239082e-05
      vertex 2.040091e+01 -2.843492e+00 3.633499e-05
      vertex 2.104435e+01 3.913157e-01 3.633499e-05
    endloop
  endfacet
  facet normal 7.792345e-07 -1.549988e-07 -1.000000e+00
    outer loop
      vertex 4.781964e+00 3.626099e+00 2.422333e-05
      vertex 4.138528e+00 3.913157e-01 2.422333e-05
      vertex -3.389831e+01 -3.455275e+01 0.000000e+00
    endloop
  endfacet
  facet normal -1.219606e-06 1.825279e-06 -1.000000e+00
    outer loop
      vertex 9.356643e+00 8.200771e+00 2.422333e-05
      vertex 6.614323e+00 6.368422e+00 2.422333e-05
      vertex 3.389918e+01 3.455275e+01 4.239082e-05
    endloop
  endfacet
  facet normal -4.081797e-07 2.727365e-07 1.000000e+00
    outer loop
      vertex 4.781965e+00 3.626099e+00 1.778023e+00
      vertex 6.614323e+00 6.368422e+00 1.778023e+00
      vertex -3.389831e+01 3.455275e+01 1.777998e+00
    endloop
  endfacet
  facet normal -2.105948e-07 -3.151791e-07 1.000000e+00
    outer loop
      vertex 1.582622e+01 8.200771e+00 1.778029e+00
      vertex 1.856854e+01 6.368422e+00 1.778029e+00
      vertex 3.389918e+01 3.455275e+01 1.778041e+00
    endloop
  endfacet
  facet normal -1.838246e-06 -1.228277e-06 1.000000e+00
    outer loop
      vertex 3.389921e+01 -3.455275e+01 1.778041e+00
      vertex -6.620855e+00 6.368398e+00 1.778016e+00
      vertex -4.788492e+00 3.626075e+00 1.778016e+00
    endloop
  endfacet
  facet normal -2.064193e-07 -3.089265e-07 1.000000e+00
    outer loop
      vertex -1.583274e+01 -7.418188e+00 1.778010e+00
      vertex -1.857506e+01 -5.585815e+00 1.778010e+00
      vertex -3.389829e+01 -3.455275e+01 1.777998e+00
    endloop
  endfacet
  facet normal 2.176839e-06 7.537718e-07 -1.000000e+00
    outer loop
      vertex -1.857508e+01 6.368398e+00 1.211166e-05
      vertex -2.040744e+01 3.626075e+00 6.055832e-06
      vertex -3.389832e+01 3.455275e+01 1.421085e-14
    endloop
  endfacet
  facet normal -1.130220e-06 1.691482e-06 -1.000000e+00
    outer loop
      vertex -3.389831e+01 -3.455275e+01 0.000000e+00
      vertex -9.363168e+00 -7.418188e+00 1.816750e-05
      vertex -6.620848e+00 -5.585815e+00 1.816750e-05
    endloop
  endfacet
  facet normal 7.840340e-08 3.941564e-07 -1.000000e+00
    outer loop
      vertex -1.583274e+01 -7.418188e+00 1.211166e-05
      vertex -1.259796e+01 -8.061632e+00 1.211166e-05
      vertex -3.389831e+01 -3.455275e+01 0.000000e+00
    endloop
  endfacet
  facet normal 2.064193e-07 3.089264e-07 -1.000000e+00
    outer loop
      vertex -3.389831e+01 -3.455275e+01 0.000000e+00
      vertex -1.857506e+01 -5.585815e+00 1.211166e-05
      vertex -1.583274e+01 -7.418188e+00 1.211166e-05
    endloop
  endfacet
  facet normal 2.129306e-06 1.293083e-06 -1.000000e+00
    outer loop
      vertex -3.389832e+01 3.455275e+01 1.421085e-14
      vertex -9.363178e+00 8.200747e+00 1.816750e-05
      vertex -1.259797e+01 8.844191e+00 1.211166e-05
    endloop
  endfacet
  facet normal 8.044818e-08 4.044375e-07 -1.000000e+00
    outer loop
      vertex 1.582622e+01 8.200771e+00 3.027916e-05
      vertex 1.259143e+01 8.844215e+00 3.027916e-05
      vertex 3.389918e+01 3.455275e+01 4.239082e-05
    endloop
  endfacet
  facet normal 1.839277e-06 -1.228963e-06 -1.000000e+00
    outer loop
      vertex -3.389831e+01 -3.455275e+01 0.000000e+00
      vertex 6.614323e+00 6.368422e+00 2.422333e-05
      vertex 4.781964e+00 3.626099e+00 2.422333e-05
    endloop
  endfacet
  facet normal 5.384438e-07 1.071034e-07 -1.000000e+00
    outer loop
      vertex 4.138528e+00 3.913157e-01 2.422333e-05
      vertex 4.781973e+00 -2.843492e+00 2.422333e-05
      vertex -3.389831e+01 -3.455275e+01 0.000000e+00
    endloop
  endfacet
  facet normal 1.556217e-06 -1.588040e-06 -1.000000e+00
    outer loop
      vertex 9.356663e+00 -7.418164e+00 2.422333e-05
      vertex 1.259144e+01 -8.061608e+00 3.027916e-05
      vertex -3.389831e+01 -3.455275e+01 0.000000e+00
    endloop
  endfacet
  facet normal -2.106216e-07 3.152196e-07 1.000000e+00
    outer loop
      vertex -1.857508e+01 6.368398e+00 1.778010e+00
      vertex -1.583275e+01 8.200747e+00 1.778010e+00
      vertex -3.389831e+01 3.455275e+01 1.777998e+00
    endloop
  endfacet
  facet normal -7.790498e-07 -1.549633e-07 1.000000e+00
    outer loop
      vertex 3.389921e+01 -3.455275e+01 1.778041e+00
      vertex -4.788492e+00 3.626075e+00 1.778016e+00
      vertex -4.145051e+00 3.912915e-01 1.778016e+00
    endloop
  endfacet
  facet normal 3.083012e-07 -6.132491e-08 -1.000000e+00
    outer loop
      vertex -3.389832e+01 3.455275e+01 1.421085e-14
      vertex -2.040744e+01 3.626075e+00 6.055832e-06
      vertex -2.105087e+01 3.912915e-01 6.055832e-06
    endloop
  endfacet
  facet normal 2.120262e-06 -1.247613e-06 -1.000000e+00
    outer loop
      vertex -3.389831e+01 -3.455275e+01 0.000000e+00
      vertex -1.259796e+01 -8.061632e+00 1.211166e-05
      vertex -9.363168e+00 -7.418188e+00 1.816750e-05
    endloop
  endfacet
  facet normal 2.193849e-06 -7.424057e-07 -1.000000e+00
    outer loop
      vertex -3.389831e+01 -3.455275e+01 0.000000e+00
      vertex -2.040743e+01 -2.843516e+00 6.055832e-06
      vertex -1.857506e+01 -5.585815e+00 1.211166e-05
    endloop
  endfacet
  facet normal 2.129453e-06 -1.293819e-06 -1.000000e+00
    outer loop
      vertex 1.259143e+01 8.844215e+00 3.027916e-05
      vertex 9.356643e+00 8.200771e+00 2.422333e-05
      vertex 3.389918e+01 3.455275e+01 4.239082e-05
    endloop
  endfacet
  facet normal 1.130697e-06 1.692220e-06 1.000000e+00
    outer loop
      vertex 6.614336e+00 -5.585815e+00 1.778023e+00
      vertex 3.389921e+01 -3.455275e+01 1.778041e+00
      vertex 9.356660e+00 -7.418164e+00 1.778023e+00
    endloop
  endfacet
  facet normal -8.045214e-08 4.044570e-07 1.000000e+00
    outer loop
      vertex -3.389831e+01 3.455275e+01 1.777998e+00
      vertex -1.583275e+01 8.200747e+00 1.778010e+00
      vertex -1.259797e+01 8.844191e+00 1.778010e+00
    endloop
  endfacet
  facet normal 0.000000e+00 1.000000e+00 1.836970e-16
    outer loop
      vertex -3.389831e+01 3.455275e+01 1.777998e+00
      vertex 3.389918e+01 3.455275e+01 1.778041e+00
      vertex 3.389918e+01 3.455275e+01 4.239082e-05
    endloop
  endfacet
  facet normal 0.000000e+00 1.000000e+00 1.836970e-16
    outer loop
      vertex 3.389918e+01 3.455275e+01 4.239082e-05
      vertex -3.389832e+01 3.455275e+01 1.421085e-14
      vertex -3.389831e+01 3.455275e+01 1.777998e+00
    endloop
  endfacet
  facet normal 0.000000e+00 -1.000000e+00 -1.836970e-16
    outer loop
      vertex 3.389918e+01 -3.455275e+01 4.239082e-05
      vertex 3.389921e+01 -3.455275e+01 1.778041e+00
      vertex -3.389829e+01 -3.455275e+01 1.777998e+00
    endloop
  endfacet
  facet normal 0.000000e+00 -1.000000e+00 -1.836970e-16
    outer loop
      vertex -3.389829e+01 -3.455275e+01 1.777998e+00
      vertex -3.389831e+01 -3.455275e+01 0.000000e+00
      vertex 3.389918e+01 -3.455275e+01 4.239082e-05
    endloop
  endfacet
  facet normal 1.000000e+00 3.505268e-07 -1.873291e-05
    outer loop
      vertex 3.389918e+01 3.455275e+01 1.778041e+00
      vertex 3.389921e+01 -3.455275e+01 1.778041e+00
      vertex 3.389918e+01 -3.455275e+01 4.239082e-05
    endloop
  endfacet
  facet normal 1.000000e+00 -8.763170e-08 -1.702991e-06
    outer loop
      vertex 3.389918e+01 -3.455275e+01 4.239082e-05
      vertex 3.389918e+01 3.455275e+01 4.239082e-05
      vertex 3.389918e+01 3.455275e+01 1.778041e+00
    endloop
  endfacet
  facet normal -1.000000e+00 -2.628951e-07 6.811966e-06
    outer loop
      vertex -3.389829e+01 -3.455275e+01 1.777998e+00
      vertex -3.389831e+01 3.455275e+01 1.777998e+00
      vertex -3.389832e+01 3.455275e+01 1.421085e-14
    endloop
  endfacet
  facet normal -1.000000e+00 -1.752634e-07 1.021795e-05
    outer loop
      vertex -3.389832e+01 3.455275e+01 1.421085e-14
      vertex -3.389831e+01 -3.455275e+01 0.000000e+00
      vertex -3.389829e+01 -3.455275e+01 1.777998e+00
    endloop
  endfacet
  facet normal -6.252565e-07 -1.041754e-07 1.000000e+00
    outer loop
      vertex -3.389829e+01 -3.455275e+01 1.777998e+00
      vertex 3.389921e+01 -3.455275e+01 1.778041e+00
      vertex -9.363170e+00 -7.418188e+00 1.778016e+00
    endloop
  endfacet
  facet normal -2.120262e-06 1.247611e-06 1.000000e+00
    outer loop
      vertex -9.363170e+00 -7.418188e+00 1.778016e+00
      vertex -1.259796e+01 -8.061632e+00 1.778010e+00
      vertex -3.389829e+01 -3.455275e+01 1.777998e+00
    endloop
  endfacet
  facet normal -3.492345e-07 9.560462e-07 -1.000000e+00
    outer loop
      vertex -3.389831e+01 -3.455275e+01 0.000000e+00
      vertex -6.620848e+00 -5.585815e+00 1.816750e-05
      vertex 3.389918e+01 3.455275e+01 4.239082e-05
    endloop
  endfacet
  facet normal -2.400556e-06 2.968541e-06 -1.000000e+00
    outer loop
      vertex 3.389918e+01 3.455275e+01 4.239082e-05
      vertex 6.614323e+00 6.368422e+00 2.422333e-05
      vertex -3.389831e+01 -3.455275e+01 0.000000e+00
    endloop
  endfacet
  facet normal -4.486371e-07 -1.574430e-13 1.000000e+00
    outer loop
      vertex 2.040091e+01 -2.843492e+00 1.778035e+00
      vertex 3.389921e+01 -3.455275e+01 1.778041e+00
      vertex 3.389918e+01 3.455275e+01 1.778041e+00
    endloop
  endfacet
  facet normal -9.993526e-07 1.987820e-07 1.000000e+00
    outer loop
      vertex 3.389918e+01 3.455275e+01 1.778041e+00
      vertex 2.104435e+01 3.913157e-01 1.778035e+00
      vertex 2.040091e+01 -2.843492e+00 1.778035e+00
    endloop
  endfacet
  facet normal -1.026998e-06 2.042820e-07 1.000000e+00
    outer loop
      vertex -3.389829e+01 -3.455275e+01 1.777998e+00
      vertex -2.105087e+01 3.912915e-01 1.778004e+00
      vertex -2.040743e+01 3.626075e+00 1.778004e+00
    endloop
  endfacet
  facet normal -4.488838e-07 -1.181930e-13 1.000000e+00
    outer loop
      vertex -2.040743e+01 3.626075e+00 1.778004e+00
      vertex -3.389831e+01 3.455275e+01 1.777998e+00
      vertex -3.389829e+01 -3.455275e+01 1.777998e+00
    endloop
  endfacet
  facet normal -2.929283e-07 4.384007e-07 1.000000e+00
    outer loop
      vertex -3.389831e+01 3.455275e+01 1.777998e+00
      vertex 6.614323e+00 6.368422e+00 1.778023e+00
      vertex 9.356644e+00 8.200771e+00 1.778023e+00
    endloop
  endfacet
  facet normal -6.252566e-07 -1.070930e-07 1.000000e+00
    outer loop
      vertex 9.356644e+00 8.200771e+00 1.778023e+00
      vertex 3.389918e+01 3.455275e+01 1.778041e+00
      vertex -3.389831e+01 3.455275e+01 1.777998e+00
    endloop
  endfacet
  facet normal -1.218994e-06 -1.824366e-06 -1.000000e+00
    outer loop
      vertex -6.620855e+00 6.368398e+00 1.816750e-05
      vertex -9.363178e+00 8.200747e+00 1.816750e-05
      vertex -3.389832e+01 3.455275e+01 1.421085e-14
    endloop
  endfacet
  facet normal 6.252564e-07 -3.945754e-08 -1.000000e+00
    outer loop
      vertex -3.389832e+01 3.455275e+01 1.421085e-14
      vertex 3.389918e+01 3.455275e+01 4.239082e-05
      vertex -6.620855e+00 6.368398e+00 1.816750e-05
    endloop
  endfacet
  facet normal 3.515139e-07 9.582826e-07 1.000000e+00
    outer loop
      vertex 3.389921e+01 -3.455275e+01 1.778041e+00
      vertex 6.614336e+00 -5.585815e+00 1.778023e+00
      vertex -3.389831e+01 3.455275e+01 1.777998e+00
    endloop
  endfacet
  facet normal 2.352697e-06 2.921589e-06 1.000000e+00
    outer loop
      vertex -3.389831e+01 3.455275e+01 1.777998e+00
      vertex -6.620855e+00 6.368398e+00 1.778016e+00
      vertex 3.389921e+01 -3.455275e+01 1.778041e+00
    endloop
  endfacet
  facet normal -1.950916e-01 9.807850e-01 -1.661197e-07
    outer loop
      vertex -9.363170e+00 -7.418188e+00 1.778016e+00
      vertex -9.363168e+00 -7.418188e+00 1.816750e-05
      vertex -1.259796e+01 -8.061632e+00 1.211166e-05
    endloop
  endfacet
  facet normal -1.950917e-01 9.807850e-01 -8.305986e-08
    outer loop
      vertex -1.259796e+01 -8.061632e+00 1.211166e-05
      vertex -1.259796e+01 -8.061632e+00 1.778010e+00
      vertex -9.363170e+00 -7.418188e+00 1.778016e+00
    endloop
  endfacet
  facet normal -8.314680e-01 5.555726e-01 7.079914e-07
    outer loop
      vertex 2.040091e+01 -2.843492e+00 1.778035e+00
      vertex 2.040091e+01 -2.843492e+00 3.633499e-05
      vertex 1.856855e+01 -5.585790e+00 3.027916e-05
    endloop
  endfacet
  facet normal -8.314673e-01 5.555736e-01 -1.415982e-06
    outer loop
      vertex 1.856855e+01 -5.585790e+00 3.027916e-05
      vertex 1.856855e+01 -5.585790e+00 1.778029e+00
      vertex 2.040091e+01 -2.843492e+00 1.778035e+00
    endloop
  endfacet
  facet normal 3.081847e-07 6.130216e-08 -1.000000e+00
    outer loop
      vertex 2.104435e+01 3.913157e-01 3.633499e-05
      vertex 2.040091e+01 3.626099e+00 3.633499e-05
      vertex 3.389918e+01 3.455275e+01 4.239082e-05
    endloop
  endfacet
  facet normal 4.710939e-07 -4.109906e-14 -1.000000e+00
    outer loop
      vertex 3.389918e+01 3.455275e+01 4.239082e-05
      vertex 3.389918e+01 -3.455275e+01 4.239082e-05
      vertex 2.104435e+01 3.913157e-01 3.633499e-05
    endloop
  endfacet
  facet normal -3.492838e-07 1.755956e-06 -1.000000e+00
    outer loop
      vertex -3.389831e+01 -3.455275e+01 0.000000e+00
      vertex 1.259144e+01 -8.061608e+00 3.027916e-05
      vertex 1.582623e+01 -7.418164e+00 3.027916e-05
    endloop
  endfacet
  facet normal 6.252566e-07 -2.990414e-08 -1.000000e+00
    outer loop
      vertex 1.582623e+01 -7.418164e+00 3.027916e-05
      vertex 3.389918e+01 -3.455275e+01 4.239082e-05
      vertex -3.389831e+01 -3.455275e+01 0.000000e+00
    endloop
  endfacet
  facet normal -5.555727e-01 8.314679e-01 1.527382e-16
    outer loop
      vertex 1.856855e+01 -5.585790e+00 3.027916e-05
      vertex 1.582623e+01 -7.418164e+00 3.027916e-05
      vertex 1.582623e+01 -7.418164e+00 1.778029e+00
    endloop
  endfacet
  facet normal -5.555732e-01 8.314676e-01 -9.461364e-07
    outer loop
      vertex 1.582623e+01 -7.418164e+00 1.778029e+00
      vertex 1.856855e+01 -5.585790e+00 1.778029e+00
      vertex 1.856855e+01 -5.585790e+00 3.027916e-05
    endloop
  endfacet
  facet normal -9.807853e-01 1.950901e-01 -2.087836e-07
    outer loop
      vertex -4.145051e+00 3.912915e-01 1.778016e+00
      vertex -4.145050e+00 3.912915e-01 1.816750e-05
      vertex -4.788488e+00 -2.843492e+00 1.816750e-05
    endloop
  endfacet
  facet normal -9.807853e-01 1.950903e-01 -4.175672e-07
    outer loop
      vertex -4.788488e+00 -2.843492e+00 1.816750e-05
      vertex -4.788489e+00 -2.843492e+00 1.778016e+00
      vertex -4.145051e+00 3.912915e-01 1.778016e+00
    endloop
  endfacet
  facet normal -5.555730e-01 8.314678e-01 -2.365340e-07
    outer loop
      vertex -9.363170e+00 -7.418188e+00 1.778016e+00
      vertex -6.620849e+00 -5.585815e+00 1.778016e+00
      vertex -6.620848e+00 -5.585815e+00 1.816750e-05
    endloop
  endfacet
  facet normal -5.555730e-01 8.314677e-01 -4.730681e-07
    outer loop
      vertex -6.620848e+00 -5.585815e+00 1.816750e-05
      vertex -9.363168e+00 -7.418188e+00 1.816750e-05
      vertex -9.363170e+00 -7.418188e+00 1.778016e+00
    endloop
  endfacet
  facet normal 1.000586e-06 1.990298e-07 -1.000000e+00
    outer loop
      vertex -3.389832e+01 3.455275e+01 1.421085e-14
      vertex -2.105087e+01 3.912915e-01 6.055832e-06
      vertex -2.040743e+01 -2.843516e+00 6.055832e-06
    endloop
  endfacet
  facet normal 4.488832e-07 7.885648e-14 -1.000000e+00
    outer loop
      vertex -2.040743e+01 -2.843516e+00 6.055832e-06
      vertex -3.389831e+01 -3.455275e+01 0.000000e+00
      vertex -3.389832e+01 3.455275e+01 1.421085e-14
    endloop
  endfacet
  facet normal -1.950916e-01 -9.807850e-01 1.661197e-07
    outer loop
      vertex 1.259143e+01 8.844215e+00 1.778029e+00
      vertex 1.259143e+01 8.844215e+00 3.027916e-05
      vertex 1.582622e+01 8.200771e+00 3.027916e-05
    endloop
  endfacet
  facet normal -1.950915e-01 -9.807850e-01 3.322392e-07
    outer loop
      vertex 1.582622e+01 8.200771e+00 3.027916e-05
      vertex 1.582622e+01 8.200771e+00 1.778029e+00
      vertex 1.259143e+01 8.844215e+00 1.778029e+00
    endloop
  endfacet
  facet normal -9.807851e-01 -1.950912e-01 8.351344e-07
    outer loop
      vertex 2.104435e+01 3.913157e-01 3.633499e-05
      vertex 2.104435e+01 3.913157e-01 1.778035e+00
      vertex 2.040091e+01 3.626099e+00 1.778035e+00
    endloop
  endfacet
  facet normal -9.807850e-01 -1.950916e-01 1.670268e-06
    outer loop
      vertex 2.040091e+01 3.626099e+00 1.778035e+00
      vertex 2.040091e+01 3.626099e+00 3.633499e-05
      vertex 2.104435e+01 3.913157e-01 3.633499e-05
    endloop
  endfacet
  facet normal 8.314667e-01 5.555745e-01 1.020574e-16
    outer loop
      vertex -1.857506e+01 -5.585815e+00 1.778010e+00
      vertex -1.857506e+01 -5.585815e+00 1.211166e-05
      vertex -2.040743e+01 -2.843516e+00 6.055832e-06
    endloop
  endfacet
  facet normal 8.314667e-01 5.555745e-01 1.020574e-16
    outer loop
      vertex -2.040743e+01 -2.843516e+00 6.055832e-06
      vertex -2.040743e+01 -2.843516e+00 1.778004e+00
      vertex -1.857506e+01 -5.585815e+00 1.778010e+00
    endloop
  endfacet
  facet normal 5.555679e-01 -8.314713e-01 -9.461273e-07
    outer loop
      vertex -1.857508e+01 6.368398e+00 1.778010e+00
      vertex -1.857508e+01 6.368398e+00 1.211166e-05
      vertex -1.583276e+01 8.200747e+00 1.211166e-05
    endloop
  endfacet
  facet normal 5.555677e-01 -8.314713e-01 -1.419191e-06
    outer loop
      vertex -1.583276e+01 8.200747e+00 1.211166e-05
      vertex -1.583275e+01 8.200747e+00 1.778010e+00
      vertex -1.857508e+01 6.368398e+00 1.778010e+00
    endloop
  endfacet
  facet normal 1.950917e-01 -9.807850e-01 -3.322396e-07
    outer loop
      vertex -1.583276e+01 8.200747e+00 1.211166e-05
      vertex -1.259797e+01 8.844191e+00 1.211166e-05
      vertex -1.259797e+01 8.844191e+00 1.778010e+00
    endloop
  endfacet
  facet normal 1.950918e-01 -9.807850e-01 -4.983596e-07
    outer loop
      vertex -1.259797e+01 8.844191e+00 1.778010e+00
      vertex -1.583275e+01 8.200747e+00 1.778010e+00
      vertex -1.583276e+01 8.200747e+00 1.211166e-05
    endloop
  endfacet
  facet normal -8.314695e-01 -5.555704e-01 3.539963e-07
    outer loop
      vertex -4.788492e+00 3.626075e+00 1.778016e+00
      vertex -6.620855e+00 6.368398e+00 1.778016e+00
      vertex -6.620855e+00 6.368398e+00 1.816750e-05
    endloop
  endfacet
  facet normal -8.314694e-01 -5.555705e-01 1.769982e-07
    outer loop
      vertex -6.620855e+00 6.368398e+00 1.816750e-05
      vertex -4.788492e+00 3.626075e+00 1.816750e-05
      vertex -4.788492e+00 3.626075e+00 1.778016e+00
    endloop
  endfacet
  facet normal -9.807855e-01 1.950888e-01 8.351348e-07
    outer loop
      vertex 2.104435e+01 3.913157e-01 3.633499e-05
      vertex 2.040091e+01 -2.843492e+00 3.633499e-05
      vertex 2.040091e+01 -2.843492e+00 1.778035e+00
    endloop
  endfacet
  facet normal -9.807855e-01 1.950888e-01 8.351348e-07
    outer loop
      vertex 2.040091e+01 -2.843492e+00 1.778035e+00
      vertex 2.104435e+01 3.913157e-01 1.778035e+00
      vertex 2.104435e+01 3.913157e-01 3.633499e-05
    endloop
  endfacet
  facet normal 8.314692e-01 5.555708e-01 1.061989e-06
    outer loop
      vertex 4.781971e+00 -2.843492e+00 1.778023e+00
      vertex 6.614336e+00 -5.585815e+00 1.778023e+00
      vertex 6.614338e+00 -5.585815e+00 2.422333e-05
    endloop
  endfacet
  facet normal 8.314691e-01 5.555709e-01 7.079924e-07
    outer loop
      vertex 6.614338e+00 -5.585815e+00 2.422333e-05
      vertex 4.781973e+00 -2.843492e+00 2.422333e-05
      vertex 4.781971e+00 -2.843492e+00 1.778023e+00
    endloop
  endfacet
  facet normal -8.314697e-01 -5.555702e-01 1.415986e-06
    outer loop
      vertex 1.856854e+01 6.368422e+00 3.027916e-05
      vertex 2.040091e+01 3.626099e+00 3.633499e-05
      vertex 2.040091e+01 3.626099e+00 1.778035e+00
    endloop
  endfacet
  facet normal -8.314692e-01 -5.555708e-01 -1.020567e-16
    outer loop
      vertex 2.040091e+01 3.626099e+00 1.778035e+00
      vertex 1.856854e+01 6.368422e+00 1.778029e+00
      vertex 1.856854e+01 6.368422e+00 3.027916e-05
    endloop
  endfacet
  facet normal -8.314699e-01 5.555698e-01 -3.539965e-07
    outer loop
      vertex -6.620848e+00 -5.585815e+00 1.816750e-05
      vertex -6.620849e+00 -5.585815e+00 1.778016e+00
      vertex -4.788489e+00 -2.843492e+00 1.778016e+00
    endloop
  endfacet
  facet normal -8.314699e-01 5.555698e-01 -3.539965e-07
    outer loop
      vertex -4.788489e+00 -2.843492e+00 1.778016e+00
      vertex -4.788488e+00 -2.843492e+00 1.816750e-05
      vertex -6.620848e+00 -5.585815e+00 1.816750e-05
    endloop
  endfacet
  facet normal -5.555677e-01 -8.314713e-01 2.365317e-07
    outer loop
      vertex -9.363178e+00 8.200747e+00 1.778016e+00
      vertex -9.363178e+00 8.200747e+00 1.816750e-05
      vertex -6.620855e+00 6.368398e+00 1.816750e-05
    endloop
  endfacet
  facet normal -5.555677e-01 -8.314713e-01 2.365317e-07
    outer loop
      vertex -6.620855e+00 6.368398e+00 1.816750e-05
      vertex -6.620855e+00 6.368398e+00 1.778016e+00
      vertex -9.363178e+00 8.200747e+00 1.778016e+00
    endloop
  endfacet
  facet normal 1.950922e-01 9.807849e-01 8.306011e-08
    outer loop
      vertex -1.259796e+01 -8.061632e+00 1.778010e+00
      vertex -1.259796e+01 -8.061632e+00 1.211166e-05
      vertex -1.583274e+01 -7.418188e+00 1.211166e-05
    endloop
  endfacet
  facet normal 1.950923e-01 9.807849e-01 1.801673e-16
    outer loop
      vertex -1.583274e+01 -7.418188e+00 1.211166e-05
      vertex -1.583274e+01 -7.418188e+00 1.778010e+00
      vertex -1.259796e+01 -8.061632e+00 1.778010e+00
    endloop
  endfacet
  facet normal 8.314703e-01 -5.555693e-01 -1.415987e-06
    outer loop
      vertex -2.040744e+01 3.626075e+00 6.055832e-06
      vertex -1.857508e+01 6.368398e+00 1.211166e-05
      vertex -1.857508e+01 6.368398e+00 1.778010e+00
    endloop
  endfacet
  facet normal 8.314700e-01 -5.555696e-01 -7.079932e-07
    outer loop
      vertex -1.857508e+01 6.368398e+00 1.778010e+00
      vertex -2.040743e+01 3.626075e+00 1.778004e+00
      vertex -2.040744e+01 3.626075e+00 6.055832e-06
    endloop
  endfacet
  facet normal -9.807851e-01 -1.950914e-01 -2.087836e-07
    outer loop
      vertex -4.788492e+00 3.626075e+00 1.816750e-05
      vertex -4.145050e+00 3.912915e-01 1.816750e-05
      vertex -4.145051e+00 3.912915e-01 1.778016e+00
    endloop
  endfacet
  facet normal -9.807851e-01 -1.950912e-01 2.087836e-07
    outer loop
      vertex -4.145051e+00 3.912915e-01 1.778016e+00
      vertex -4.788492e+00 3.626075e+00 1.778016e+00
      vertex -4.788492e+00 3.626075e+00 1.816750e-05
    endloop
  endfacet
  facet normal 9.807854e-01 -1.950896e-01 -2.087836e-07
    outer loop
      vertex 4.138528e+00 3.913157e-01 2.422333e-05
      vertex 4.781964e+00 3.626099e+00 2.422333e-05
      vertex 4.781965e+00 3.626099e+00 1.778023e+00
    endloop
  endfacet
  facet normal 9.807854e-01 -1.950898e-01 2.087836e-07
    outer loop
      vertex 4.781965e+00 3.626099e+00 1.778023e+00
      vertex 4.138528e+00 3.913157e-01 1.778023e+00
      vertex 4.138528e+00 3.913157e-01 2.422333e-05
    endloop
  endfacet
  facet normal 1.950917e-01 -9.807850e-01 -1.661197e-07
    outer loop
      vertex 9.356643e+00 8.200771e+00 2.422333e-05
      vertex 1.259143e+01 8.844215e+00 3.027916e-05
      vertex 1.259143e+01 8.844215e+00 1.778029e+00
    endloop
  endfacet
  facet normal 1.950917e-01 -9.807850e-01 -1.661197e-07
    outer loop
      vertex 1.259143e+01 8.844215e+00 1.778029e+00
      vertex 9.356644e+00 8.200771e+00 1.778023e+00
      vertex 9.356643e+00 8.200771e+00 2.422333e-05
    endloop
  endfacet
  facet normal 9.807852e-01 1.950907e-01 2.087836e-07
    outer loop
      vertex 4.781973e+00 -2.843492e+00 2.422333e-05
      vertex 4.138528e+00 3.913157e-01 2.422333e-05
      vertex 4.138528e+00 3.913157e-01 1.778023e+00
    endloop
  endfacet
  facet normal 9.807853e-01 1.950904e-01 8.351345e-07
    outer loop
      vertex 4.138528e+00 3.913157e-01 1.778023e+00
      vertex 4.781971e+00 -2.843492e+00 1.778023e+00
      vertex 4.781973e+00 -2.843492e+00 2.422333e-05
    endloop
  endfacet
  facet normal -1.950916e-01 9.807850e-01 1.801673e-16
    outer loop
      vertex 1.582623e+01 -7.418164e+00 1.778029e+00
      vertex 1.582623e+01 -7.418164e+00 3.027916e-05
      vertex 1.259144e+01 -8.061608e+00 3.027916e-05
    endloop
  endfacet
  facet normal -1.950916e-01 9.807850e-01 1.801673e-16
    outer loop
      vertex 1.259144e+01 -8.061608e+00 3.027916e-05
      vertex 1.259144e+01 -8.061608e+00 1.778029e+00
      vertex 1.582623e+01 -7.418164e+00 1.778029e+00
    endloop
  endfacet
  facet normal 5.555674e-01 8.314714e-01 9.461266e-07
    outer loop
      vertex 6.614336e+00 -5.585815e+00 1.778023e+00
      vertex 9.356660e+00 -7.418164e+00 1.778023e+00
      vertex 9.356663e+00 -7.418164e+00 2.422333e-05
    endloop
  endfacet
  facet normal 5.555674e-01 8.314716e-01 7.095949e-07
    outer loop
      vertex 9.356663e+00 -7.418164e+00 2.422333e-05
      vertex 6.614338e+00 -5.585815e+00 2.422333e-05
      vertex 6.614336e+00 -5.585815e+00 1.778023e+00
    endloop
  endfacet
  facet normal 8.314700e-01 -5.555696e-01 -3.539966e-07
    outer loop
      vertex 4.781964e+00 3.626099e+00 2.422333e-05
      vertex 6.614323e+00 6.368422e+00 2.422333e-05
      vertex 6.614323e+00 6.368422e+00 1.778023e+00
    endloop
  endfacet
  facet normal 8.314700e-01 -5.555696e-01 -1.769983e-07
    outer loop
      vertex 6.614323e+00 6.368422e+00 1.778023e+00
      vertex 4.781965e+00 3.626099e+00 1.778023e+00
      vertex 4.781964e+00 3.626099e+00 2.422333e-05
    endloop
  endfacet
  facet normal -5.555681e-01 -8.314710e-01 9.461277e-07
    outer loop
      vertex 1.856854e+01 6.368422e+00 1.778029e+00
      vertex 1.582622e+01 8.200771e+00 1.778029e+00
      vertex 1.582622e+01 8.200771e+00 3.027916e-05
    endloop
  endfacet
  facet normal -5.555677e-01 -8.314713e-01 -1.527388e-16
    outer loop
      vertex 1.582622e+01 8.200771e+00 3.027916e-05
      vertex 1.856854e+01 6.368422e+00 3.027916e-05
      vertex 1.856854e+01 6.368422e+00 1.778029e+00
    endloop
  endfacet
  facet normal 5.555726e-01 8.314680e-01 1.527382e-16
    outer loop
      vertex -1.583274e+01 -7.418188e+00 1.211166e-05
      vertex -1.857506e+01 -5.585815e+00 1.211166e-05
      vertex -1.857506e+01 -5.585815e+00 1.778010e+00
    endloop
  endfacet
  facet normal 5.555726e-01 8.314680e-01 1.527382e-16
    outer loop
      vertex -1.857506e+01 -5.585815e+00 1.778010e+00
      vertex -1.583274e+01 -7.418188e+00 1.778010e+00
      vertex -1.583274e+01 -7.418188e+00 1.211166e-05
    endloop
  endfacet
  facet normal 9.807851e-01 1.950911e-01 -1.670269e-06
    outer loop
      vertex -2.040743e+01 -2.843516e+00 6.055832e-06
      vertex -2.105087e+01 3.912915e-01 6.055832e-06
      vertex -2.105087e+01 3.912915e-01 1.778004e+00
    endloop
  endfacet
  facet normal 9.807853e-01 1.950902e-01 3.583748e-17
    outer loop
      vertex -2.105087e+01 3.912915e-01 1.778004e+00
      vertex -2.040743e+01 -2.843516e+00 1.778004e+00
      vertex -2.040743e+01 -2.843516e+00 6.055832e-06
    endloop
  endfacet
  facet normal 9.807853e-01 -1.950903e-01 -8.351345e-07
    outer loop
      vertex -2.105087e+01 3.912915e-01 6.055832e-06
      vertex -2.040744e+01 3.626075e+00 6.055832e-06
      vertex -2.040743e+01 3.626075e+00 1.778004e+00
    endloop
  endfacet
  facet normal 9.807854e-01 -1.950898e-01 -1.670269e-06
    outer loop
      vertex -2.040743e+01 3.626075e+00 1.778004e+00
      vertex -2.105087e+01 3.912915e-01 1.778004e+00
      vertex -2.105087e+01 3.912915e-01 6.055832e-06
    endloop
  endfacet
  facet normal -1.950916e-01 -9.807850e-01 3.322393e-07
    outer loop
      vertex -1.259797e+01 8.844191e+00 1.778010e+00
      vertex -1.259797e+01 8.844191e+00 1.211166e-05
      vertex -9.363178e+00 8.200747e+00 1.816750e-05
    endloop
  endfacet
  facet normal -1.950917e-01 -9.807850e-01 8.305989e-08
    outer loop
      vertex -9.363178e+00 8.200747e+00 1.816750e-05
      vertex -9.363178e+00 8.200747e+00 1.778016e+00
      vertex -1.259797e+01 8.844191e+00 1.778010e+00
    endloop
  endfacet
  facet normal 5.555681e-01 -8.314710e-01 -2.365319e-07
    outer loop
      vertex 6.614323e+00 6.368422e+00 1.778023e+00
      vertex 6.614323e+00 6.368422e+00 2.422333e-05
      vertex 9.356643e+00 8.200771e+00 2.422333e-05
    endloop
  endfacet
  facet normal 5.555680e-01 -8.314711e-01 -4.730638e-07
    outer loop
      vertex 9.356643e+00 8.200771e+00 2.422333e-05
      vertex 9.356644e+00 8.200771e+00 1.778023e+00
      vertex 6.614323e+00 6.368422e+00 1.778023e+00
    endloop
  endfacet
  facet normal 1.950923e-01 9.807849e-01 3.322406e-07
    outer loop
      vertex 1.259144e+01 -8.061608e+00 3.027916e-05
      vertex 9.356663e+00 -7.418164e+00 2.422333e-05
      vertex 9.356660e+00 -7.418164e+00 1.778023e+00
    endloop
  endfacet
  facet normal 1.950922e-01 9.807849e-01 1.801673e-16
    outer loop
      vertex 9.356660e+00 -7.418164e+00 1.778023e+00
      vertex 1.259144e+01 -8.061608e+00 1.778029e+00
      vertex 1.259144e+01 -8.061608e+00 3.027916e-05
    endloop
  endfacet
  facet normal 0.000000e+00 1.000000e+00 1.836970e-16
    outer loop
      vertex 3.387344e+01 2.182528e+01 7.848276e+00
      vertex 3.387344e+01 2.182528e+01 1.498279e+00
      vertex 2.826189e+01 2.182528e+01 1.498279e+00
    endloop
  endfacet
  facet normal 0.000000e+00 1.000000e+00 1.836970e-16
    outer loop
      vertex 2.826189e+01 2.182528e+01 1.498279e+00
      vertex 2.826189e+01 2.182528e+01 7.848279e+00
      vertex 3.387344e+01 2.182528e+01 7.848276e+00
    endloop
  endfacet
  facet normal 0.000000e+00 -1.000000e+00 -1.836970e-16
    outer loop
      vertex 3.387344e+01 1.547528e+01 7.848276e+00
      vertex 2.826189e+01 1.547528e+01 7.848279e+00
      vertex 2.826188e+01 1.547528e+01 1.498279e+00
    endloop
  endfacet
  facet normal 0.000000e+00 -1.000000e+00 -1.836970e-16
    outer loop
      vertex 2.826188e+01 1.547528e+01 1.498279e+00
      vertex 3.387344e+01 1.547528e+01 1.498279e+00
      vertex 3.387344e+01 1.547528e+01 7.848276e+00
    endloop
  endfacet
  facet normal 0.000000e+00 1.836970e-16 -1.000000e+00
    outer loop
      vertex 3.387344e+01 2.182528e+01 1.498279e+00
      vertex 3.387344e+01 1.547528e+01 1.498279e+00
      vertex 2.826188e+01 1.547528e+01 1.498279e+00
    endloop
  endfacet
  facet normal 0.000000e+00 1.836970e-16 -1.000000e+00
    outer loop
      vertex 2.826188e+01 1.547528e+01 1.498279e+00
      vertex 2.826189e+01 2.182528e+01 1.498279e+00
      vertex 3.387344e+01 2.182528e+01 1.498279e+00
    endloop
  endfacet
  facet normal 5.395865e-07 2.571112e-13 1.000000e+00
    outer loop
      vertex 3.387344e+01 1.547528e+01 7.848276e+00
      vertex 3.387344e+01 2.182528e+01 7.848276e+00
      vertex 2.826189e+01 2.182528e+01 7.848279e+00
    endloop
  endfacet
  facet normal 5.395862e-07 -1.836970e-16 1.000000e+00
    outer loop
      vertex 2.826189e+01 2.182528e+01 7.848279e+00
      vertex 2.826189e+01 1.547528e+01 7.848279e+00
      vertex 3.387344e+01 1.547528e+01 7.848276e+00
    endloop
  endfacet
  facet normal 1.000000e+00 4.768372e-07 -4.768345e-07
    outer loop
      vertex 3.387344e+01 2.017429e+01 6.197278e+00
      vertex 3.387344e+01 2.182528e+01 7.848276e+00
      vertex 3.387344e+01 1.547528e+01 7.848276e+00
    endloop
  endfacet
  facet normal 1.000000e+00 3.368986e-22 -1.833991e-06
    outer loop
      vertex 3.387344e+01 1.547528e+01 7.848276e+00
      vertex 3.387344e+01 1.712627e+01 6.197278e+00
      vertex 3.387344e+01 2.017429e+01 6.197278e+00
    endloop
  endfacet
  facet normal -1.000000e+00 4.768372e-07 1.357154e-06
    outer loop
      vertex 2.826189e+01 2.182528e+01 1.498279e+00
      vertex 2.826188e+01 1.547528e+01 1.498279e+00
      vertex 2.826189e+01 1.712627e+01 3.149281e+00
    endloop
  endfacet
  facet normal -1.000000e+00 0.000000e+00 0.000000e+00
    outer loop
      vertex 2.826189e+01 1.712627e+01 3.149281e+00
      vertex 2.826189e+01 2.017429e+01 3.149281e+00
      vertex 2.826189e+01 2.182528e+01 1.498279e+00
    endloop
  endfacet
  facet normal -1.000000e+00 4.768407e-07 4.768372e-07
    outer loop
      vertex 2.826188e+01 1.547528e+01 1.498279e+00
      vertex 2.826189e+01 1.547528e+01 7.848279e+00
      vertex 2.826189e+01 1.712627e+01 6.197278e+00
    endloop
  endfacet
  facet normal -1.000000e+00 1.834001e-06 3.369005e-22
    outer loop
      vertex 2.826189e+01 1.712627e+01 6.197278e+00
      vertex 2.826189e+01 1.712627e+01 3.149281e+00
      vertex 2.826188e+01 1.547528e+01 1.498279e+00
    endloop
  endfacet
  facet normal 1.000000e+00 0.000000e+00 0.000000e+00
    outer loop
      vertex 3.387344e+01 2.182528e+01 1.498279e+00
      vertex 3.387344e+01 2.182528e+01 7.848276e+00
      vertex 3.387344e+01 2.017429e+01 6.197278e+00
    endloop
  endfacet
  facet normal 1.000000e+00 0.000000e+00 0.000000e+00
    outer loop
      vertex 3.387344e+01 2.017429e+01 6.197278e+00
      vertex 3.387344e+01 2.017429e+01 3.149281e+00
      vertex 3.387344e+01 2.182528e+01 1.498279e+00
    endloop
  endfacet
  facet normal -1.000000e+00 -0.000000e+00 0.000000e+00
    outer loop
      vertex 2.826189e+01 2.182528e+01 7.848279e+00
      vertex 2.826189e+01 2.017429e+01 6.197278e+00
      vertex 2.826189e+01 1.712627e+01 6.197278e+00
    endloop
  endfacet
  facet normal -1.000000e+00 -0.000000e+00 0.000000e+00
    outer loop
      vertex 2.826189e+01 1.712627e+01 6.197278e+00
      vertex 2.826189e+01 1.547528e+01 7.848279e+00
      vertex 2.826189e+01 2.182528e+01 7.848279e+00
    endloop
  endfacet
  facet normal 0.000000e+00 1.836970e-16 -1.000000e+00
    outer loop
      vertex 3.387344e+01 2.017429e+01 6.197278e+00
      vertex 3.387344e+01 1.712627e+01 6.197278e+00
      vertex 2.826189e+01 1.712627e+01 6.197278e+00
    endloop
  endfacet
  facet normal 0.000000e+00 1.836970e-16 -1.000000e+00
    outer loop
      vertex 2.826189e+01 1.712627e+01 6.197278e+00
      vertex 2.826189e+01 2.017429e+01 6.197278e+00
      vertex 3.387344e+01 2.017429e+01 6.197278e+00
    endloop
  endfacet
  facet normal 1.000000e+00 0.000000e+00 0.000000e+00
    outer loop
      vertex 3.387344e+01 2.017429e+01 3.149281e+00
      vertex 3.387344e+01 1.712627e+01 3.149281e+00
      vertex 3.387344e+01 1.547528e+01 1.498279e+00
    endloop
  endfacet
  facet normal 1.000000e+00 0.000000e+00 0.000000e+00
    outer loop
      vertex 3.387344e+01 1.547528e+01 1.498279e+00
      vertex 3.387344e+01 2.182528e+01 1.498279e+00
      vertex 3.387344e+01 2.017429e+01 3.149281e+00
    endloop
  endfacet
  facet normal 0.000000e+00 -1.836970e-16 1.000000e+00
    outer loop
      vertex 3.387344e+01 2.017429e+01 3.149281e+00
      vertex 2.826189e+01 2.017429e+01 3.149281e+00
      vertex 2.826189e+01 1.712627e+01 3.149281e+00
    endloop
  endfacet
  facet normal 0.000000e+00 -1.836970e-16 1.000000e+00
    outer loop
      vertex 2.826189e+01 1.712627e+01 3.149281e+00
      vertex 3.387344e+01 1.712627e+01 3.149281e+00
      vertex 3.387344e+01 2.017429e+01 3.149281e+00
    endloop
  endfacet
  facet normal 1.000000e+00 1.834001e-06 3.369005e-22
    outer loop
      vertex 3.387344e+01 1.712627e+01 3.149281e+00
      vertex 3.387344e+01 1.712627e+01 6.197278e+00
      vertex 3.387344e+01 1.547528e+01 7.848276e+00
    endloop
  endfacet
  facet normal 1.000000e+00 4.768409e-07 -4.768374e-07
    outer loop
      vertex 3.387344e+01 1.547528e+01 7.848276e+00
      vertex 3.387344e+01 1.547528e+01 1.498279e+00
      vertex 3.387344e+01 1.712627e+01 3.149281e+00
    endloop
  endfacet
  facet normal -1.000000e+00 -0.000000e+00 0.000000e+00
    outer loop
      vertex 2.826189e+01 2.017429e+01 3.149281e+00
      vertex 2.826189e+01 2.017429e+01 6.197278e+00
      vertex 2.826189e+01 2.182528e+01 7.848279e+00
    endloop
  endfacet
  facet normal -1.000000e+00 -0.000000e+00 0.000000e+00
    outer loop
      vertex 2.826189e+01 2.182528e+01 7.848279e+00
      vertex 2.826189e+01 2.182528e+01 1.498279e+00
      vertex 2.826189e+01 2.017429e+01 3.149281e+00
    endloop
  endfacet
  facet normal 0.000000e+00 -1.000000e+00 -1.836970e-16
    outer loop
      vertex 3.387344e+01 2.017429e+01 6.197278e+00
      vertex 2.826189e+01 2.017429e+01 6.197278e+00
      vertex 2.826189e+01 2.017429e+01 3.149281e+00
    endloop
  endfacet
  facet normal 0.000000e+00 -1.000000e+00 -1.836970e-16
    outer loop
      vertex 2.826189e+01 2.017429e+01 3.149281e+00
      vertex 3.387344e+01 2.017429e+01 3.149281e+00
      vertex 3.387344e+01 2.017429e+01 6.197278e+00
    endloop
  endfacet
  facet normal 0.000000e+00 1.000000e+00 1.836970e-16
    outer loop
      vertex 3.387344e+01 1.712627e+01 6.197278e+00
      vertex 3.387344e+01 1.712627e+01 3.149281e+00
      vertex 2.826189e+01 1.712627e+01 3.149281e+00
    endloop
  endfacet
  facet normal 0.000000e+00 1.000000e+00 1.836970e-16
    outer loop
      vertex 2.826189e+01 1.712627e+01 3.149281e+00
      vertex 2.826189e+01 1.712627e+01 6.197278e+00
      vertex 3.387344e+01 1.712627e+01 6.197278e+00
    endloop
  endfacet
  facet normal 0.000000e+00 1.000000e+00 1.836970e-16
    outer loop
      vertex -2.828766e+01 2.182528e+01 7.848276e+00
      vertex -2.828766e+01 2.182528e+01 1.498279e+00
      vertex -3.389921e+01 2.182528e+01 1.498279e+00
    endloop
  endfacet
  facet normal 0.000000e+00 1.000000e+00 1.836970e-16
    outer loop
      vertex -3.389921e+01 2.182528e+01 1.498279e+00
      vertex -3.389921e+01 2.182528e+01 7.848279e+00
      vertex -2.828766e+01 2.182528e+01 7.848276e+00
    endloop
  endfacet
  facet normal 0.000000e+00 -1.000000e+00 -1.836970e-16
    outer loop
      vertex -2.828765e+01 1.547528e+01 7.848276e+00
      vertex -3.389921e+01 1.547528e+01 7.848279e+00
      vertex -3.389921e+01 1.547528e+01 1.498279e+00
    endloop
  endfacet
  facet normal 0.000000e+00 -1.000000e+00 -1.836970e-16
    outer loop
      vertex -3.389921e+01 1.547528e+01 1.498279e+00
      vertex -2.828766e+01 1.547528e+01 1.498279e+00
      vertex -2.828765e+01 1.547528e+01 7.848276e+00
    endloop
  endfacet
  facet normal 0.000000e+00 1.836970e-16 -1.000000e+00
    outer loop
      vertex -2.828766e+01 2.182528e+01 1.498279e+00
      vertex -2.828766e+01 1.547528e+01 1.498279e+00
      vertex -3.389921e+01 1.547528e+01 1.498279e+00
    endloop
  endfacet
  facet normal 0.000000e+00 1.836970e-16 -1.000000e+00
    outer loop
      vertex -3.389921e+01 1.547528e+01 1.498279e+00
      vertex -3.389921e+01 2.182528e+01 1.498279e+00
      vertex -2.828766e+01 2.182528e+01 1.498279e+00
    endloop
  endfacet
  facet normal 5.395865e-07 2.571112e-13 1.000000e+00
    outer loop
      vertex -2.828765e+01 1.547528e+01 7.848276e+00
      vertex -2.828766e+01 2.182528e+01 7.848276e+00
      vertex -3.389921e+01 2.182528e+01 7.848279e+00
    endloop
  endfacet
  facet normal 5.395862e-07 -1.836970e-16 1.000000e+00
    outer loop
      vertex -3.389921e+01 2.182528e+01 7.848279e+00
      vertex -3.389921e+01 1.547528e+01 7.848279e+00
      vertex -2.828765e+01 1.547528e+01 7.848276e+00
    endloop
  endfacet
  facet normal 1.000000e+00 4.768372e-07 -4.768345e-07
    outer loop
      vertex -2.828766e+01 2.017429e+01 6.197278e+00
      vertex -2.828766e+01 2.182528e+01 7.848276e+00
      vertex -2.828765e+01 1.547528e+01 7.848276e+00
    endloop
  endfacet
  facet normal 1.000000e+00 3.368986e-22 -1.833991e-06
    outer loop
      vertex -2.828765e+01 1.547528e+01 7.848276e+00
      vertex -2.828766e+01 1.712627e+01 6.197278e+00
      vertex -2.828766e+01 2.017429e+01 6.197278e+00
    endloop
  endfacet
  facet normal -1.000000e+00 4.768372e-07 1.357154e-06
    outer loop
      vertex -3.389921e+01 2.182528e+01 1.498279e+00
      vertex -3.389921e+01 1.547528e+01 1.498279e+00
      vertex -3.389921e+01 1.712627e+01 3.149281e+00
    endloop
  endfacet
  facet normal -1.000000e+00 0.000000e+00 0.000000e+00
    outer loop
      vertex -3.389921e+01 1.712627e+01 3.149281e+00
      vertex -3.389921e+01 2.017429e+01 3.149281e+00
      vertex -3.389921e+01 2.182528e+01 1.498279e+00
    endloop
  endfacet
  facet normal -1.000000e+00 4.768407e-07 4.768372e-07
    outer loop
      vertex -3.389921e+01 1.547528e+01 1.498279e+00
      vertex -3.389921e+01 1.547528e+01 7.848279e+00
      vertex -3.389921e+01 1.712627e+01 6.197278e+00
    endloop
  endfacet
  facet normal -1.000000e+00 1.834001e-06 3.369005e-22
    outer loop
      vertex -3.389921e+01 1.712627e+01 6.197278e+00
      vertex -3.389921e+01 1.712627e+01 3.149281e+00
      vertex -3.389921e+01 1.547528e+01 1.498279e+00
    endloop
  endfacet
  facet normal 1.000000e+00 0.000000e+00 0.000000e+00
    outer loop
      vertex -2.828766e+01 2.182528e+01 1.498279e+00
      vertex -2.828766e+01 2.182528e+01 7.848276e+00
      vertex -2.828766e+01 2.017429e+01 6.197278e+00
    endloop
  endfacet
  facet normal 1.000000e+00 0.000000e+00 0.000000e+00
    outer loop
      vertex -2.828766e+01 2.017429e+01 6.197278e+00
      vertex -2.828766e+01 2.017429e+01 3.149281e+00
      vertex -2.828766e+01 2.182528e+01 1.498279e+00
    endloop
  endfacet
  facet normal -1.000000e+00 -0.000000e+00 0.000000e+00
    outer loop
      vertex -3.389921e+01 2.182528e+01 7.848279e+00
      vertex -3.389921e+01 2.017429e+01 6.197278e+00
      vertex -3.389921e+01 1.712627e+01 6.197278e+00
    endloop
  endfacet
  facet normal -1.000000e+00 -0.000000e+00 0.000000e+00
    outer loop
      vertex -3.389921e+01 1.712627e+01 6.197278e+00
      vertex -3.389921e+01 1.547528e+01 7.848279e+00
      vertex -3.389921e+01 2.182528e+01 7.848279e+00
    endloop
  endfacet
  facet normal 0.000000e+00 1.836970e-16 -1.000000e+00
    outer loop
      vertex -2.828766e+01 2.017429e+01 6.197278e+00
      vertex -2.828766e+01 1.712627e+01 6.197278e+00
      vertex -3.389921e+01 1.712627e+01 6.197278e+00
    endloop
  endfacet
  facet normal 0.000000e+00 1.836970e-16 -1.000000e+00
    outer loop
      vertex -3.389921e+01 1.712627e+01 6.197278e+00
      vertex -3.389921e+01 2.017429e+01 6.197278e+00
      vertex -2.828766e+01 2.017429e+01 6.197278e+00
    endloop
  endfacet
  facet normal 1.000000e+00 0.000000e+00 0.000000e+00
    outer loop
      vertex -2.828766e+01 2.017429e+01 3.149281e+00
      vertex -2.828766e+01 1.712627e+01 3.149281e+00
      vertex -2.828766e+01 1.547528e+01 1.498279e+00
    endloop
  endfacet
  facet normal 1.000000e+00 0.000000e+00 0.000000e+00
    outer loop
      vertex -2.828766e+01 1.547528e+01 1.498279e+00
      vertex -2.828766e+01 2.182528e+01 1.498279e+00
      vertex -2.828766e+01 2.017429e+01 3.149281e+00
    endloop
  endfacet
  facet normal 0.000000e+00 -1.836970e-16 1.000000e+00
    outer loop
      vertex -2.828766e+01 2.017429e+01 3.149281e+00
      vertex -3.389921e+01 2.017429e+01 3.149281e+00
      vertex -3.389921e+01 1.712627e+01 3.149281e+00
    endloop
  endfacet
  facet normal 0.000000e+00 -1.836970e-16 1.000000e+00
    outer loop
      vertex -3.389921e+01 1.712627e+01 3.149281e+00
      vertex -2.828766e+01 1.712627e+01 3.149281e+00
      vertex -2.828766e+01 2.017429e+01 3.149281e+00
    endloop
  endfacet
  facet normal 1.000000e+00 1.834001e-06 3.369005e-22
    outer loop
      vertex -2.828766e+01 1.712627e+01 3.149281e+00
      vertex -2.828766e+01 1.712627e+01 6.197278e+00
      vertex -2.828765e+01 1.547528e+01 7.848276e+00
    endloop
  endfacet
  facet normal 1.000000e+00 4.768409e-07 -4.768374e-07
    outer loop
      vertex -2.828765e+01 1.547528e+01 7.848276e+00
      vertex -2.828766e+01 1.547528e+01 1.498279e+00
      vertex -2.828766e+01 1.712627e+01 3.149281e+00
    endloop
  endfacet
  facet normal -1.000000e+00 -0.000000e+00 0.000000e+00
    outer loop
      vertex -3.389921e+01 2.017429e+01 3.149281e+00
      vertex -3.389921e+01 2.017429e+01 6.197278e+00
      vertex -3.389921e+01 2.182528e+01 7.848279e+00
    endloop
  endfacet
  facet normal -1.000000e+00 -0.000000e+00 0.000000e+00
    outer loop
      vertex -3.389921e+01 2.182528e+01 7.848279e+00
      vertex -3.389921e+01 2.182528e+01 1.498279e+00
      vertex -3.389921e+01 2.017429e+01 3.149281e+00
    endloop
  endfacet
  facet normal 0.000000e+00 -1.000000e+00 -1.836970e-16
    outer loop
      vertex -2.828766e+01 2.017429e+01 6.197278e+00
      vertex -3.389921e+01 2.017429e+01 6.197278e+00
      vertex -3.389921e+01 2.017429e+01 3.149281e+00
    endloop
  endfacet
  facet normal 0.000000e+00 -1.000000e+00 -1.836970e-16
    outer loop
      vertex -3.389921e+01 2.017429e+01 3.149281e+00
      vertex -2.828766e+01 2.017429e+01 3.149281e+00
      vertex -2.828766e+01 2.017429e+01 6.197278e+00
    endloop
  endfacet
  facet normal 0.000000e+00 1.000000e+00 1.836970e-16
    outer loop
      vertex -2.828766e+01 1.712627e+01 6.197278e+00
      vertex -2.828766e+01 1.712627e+01 3.149281e+00
      vertex -3.389921e+01 1.712627e+01 3.149281e+00
    endloop
  endfacet
  facet normal 0.000000e+00 1.000000e+00 1.836970e-16
    outer loop
      vertex -3.389921e+01 1.712627e+01 3.149281e+00
      vertex -3.389921e+01 1.712627e+01 6.197278e+00
      vertex -2.828766e+01 1.712627e+01 6.197278e+00
    endloop
  endfacet
  facet normal 0.000000e+00 1.000000e+00 1.836970e-16
    outer loop
      vertex -2.828766e+01 -1.432230e+01 7.848276e+00
      vertex -2.828766e+01 -1.432230e+01 1.498279e+00
      vertex -3.389921e+01 -1.432230e+01 1.498279e+00
    endloop
  endfacet
  facet normal 0.000000e+00 1.000000e+00 1.836970e-16
    outer loop
      vertex -3.389921e+01 -1.432230e+01 1.498279e+00
      vertex -3.389921e+01 -1.432230e+01 7.848279e+00
      vertex -2.828766e+01 -1.432230e+01 7.848276e+00
    endloop
  endfacet
  facet normal 0.000000e+00 -1.000000e+00 -1.836970e-16
    outer loop
      vertex -2.828765e+01 -2.067230e+01 7.848276e+00
      vertex -3.389921e+01 -2.067230e+01 7.848279e+00
      vertex -3.389921e+01 -2.067230e+01 1.498279e+00
    endloop
  endfacet
  facet normal 0.000000e+00 -1.000000e+00 -1.836970e-16
    outer loop
      vertex -3.389921e+01 -2.067230e+01 1.498279e+00
      vertex -2.828766e+01 -2.067230e+01 1.498279e+00
      vertex -2.828765e+01 -2.067230e+01 7.848276e+00
    endloop
  endfacet
  facet normal 0.000000e+00 1.836970e-16 -1.000000e+00
    outer loop
      vertex -2.828766e+01 -1.432230e+01 1.498279e+00
      vertex -2.828766e+01 -2.067230e+01 1.498279e+00
      vertex -3.389921e+01 -2.067230e+01 1.498279e+00
    endloop
  endfacet
  facet normal 0.000000e+00 1.836970e-16 -1.000000e+00
    outer loop
      vertex -3.389921e+01 -2.067230e+01 1.498279e+00
      vertex -3.389921e+01 -1.432230e+01 1.498279e+00
      vertex -2.828766e+01 -1.432230e+01 1.498279e+00
    endloop
  endfacet
  facet normal 5.395865e-07 2.571112e-13 1.000000e+00
    outer loop
      vertex -2.828765e+01 -2.067230e+01 7.848276e+00
      vertex -2.828766e+01 -1.432230e+01 7.848276e+00
      vertex -3.389921e+01 -1.432230e+01 7.848279e+00
    endloop
  endfacet
  facet normal 5.395862e-07 -1.836970e-16 1.000000e+00
    outer loop
      vertex -3.389921e+01 -1.432230e+01 7.848279e+00
      vertex -3.389921e+01 -2.067230e+01 7.848279e+00
      vertex -2.828765e+01 -2.067230e+01 7.848276e+00
    endloop
  endfacet
  facet normal 1.000000e+00 4.768372e-07 -4.768345e-07
    outer loop
      vertex -2.828766e+01 -1.597329e+01 6.197278e+00
      vertex -2.828766e+01 -1.432230e+01 7.848276e+00
      vertex -2.828765e+01 -2.067230e+01 7.848276e+00
    endloop
  endfacet
  facet normal 1.000000e+00 3.368986e-22 -1.833991e-06
    outer loop
      vertex -2.828765e+01 -2.067230e+01 7.848276e+00
      vertex -2.828766e+01 -1.902131e+01 6.197278e+00
      vertex -2.828766e+01 -1.597329e+01 6.197278e+00
    endloop
  endfacet
  facet normal -1.000000e+00 4.768372e-07 1.357154e-06
    outer loop
      vertex -3.389921e+01 -1.432230e+01 1.498279e+00
      vertex -3.389921e+01 -2.067230e+01 1.498279e+00
      vertex -3.389921e+01 -1.902131e+01 3.149281e+00
    endloop
  endfacet
  facet normal -1.000000e+00 0.000000e+00 0.000000e+00
    outer loop
      vertex -3.389921e+01 -1.902131e+01 3.149281e+00
      vertex -3.389921e+01 -1.597329e+01 3.149281e+00
      vertex -3.389921e+01 -1.432230e+01 1.498279e+00
    endloop
  endfacet
  facet normal -1.000000e+00 4.768407e-07 4.768372e-07
    outer loop
      vertex -3.389921e+01 -2.067230e+01 1.498279e+00
      vertex -3.389921e+01 -2.067230e+01 7.848279e+00
      vertex -3.389921e+01 -1.902131e+01 6.197278e+00
    endloop
  endfacet
  facet normal -1.000000e+00 1.834001e-06 3.369005e-22
    outer loop
      vertex -3.389921e+01 -1.902131e+01 6.197278e+00
      vertex -3.389921e+01 -1.902131e+01 3.149281e+00
      vertex -3.389921e+01 -2.067230e+01 1.498279e+00
    endloop
  endfacet
  facet normal 1.000000e+00 0.000000e+00 0.000000e+00
    outer loop
      vertex -2.828766e+01 -1.432230e+01 1.498279e+00
      vertex -2.828766e+01 -1.432230e+01 7.848276e+00
      vertex -2.828766e+01 -1.597329e+01 6.197278e+00
    endloop
  endfacet
  facet normal 1.000000e+00 0.000000e+00 0.000000e+00
    outer loop
      vertex -2.828766e+01 -1.597329e+01 6.197278e+00
      vertex -2.828766e+01 -1.597329e+01 3.149281e+00
      vertex -2.828766e+01 -1.432230e+01 1.498279e+00
    endloop
  endfacet
  facet normal -1.000000e+00 -0.000000e+00 0.000000e+00
    outer loop
      vertex -3.389921e+01 -1.432230e+01 7.848279e+00
      vertex -3.389921e+01 -1.597329e+01 6.197278e+00
      vertex -3.389921e+01 -1.902131e+01 6.197278e+00
    endloop
  endfacet
  facet normal -1.000000e+00 -0.000000e+00 0.000000e+00
    outer loop
      vertex -3.389921e+01 -1.902131e+01 6.197278e+00
      vertex -3.389921e+01 -2.067230e+01 7.848279e+00
      vertex -3.389921e+01 -1.432230e+01 7.848279e+00
    endloop
  endfacet
  facet normal 0.000000e+00 1.836970e-16 -1.000000e+00
    outer loop
      vertex -2.828766e+01 -1.597329e+01 6.197278e+00
      vertex -2.828766e+01 -1.902131e+01 6.197278e+00
      vertex -3.389921e+01 -1.902131e+01 6.197278e+00
    endloop
  endfacet
  facet normal 0.000000e+00 1.836970e-16 -1.000000e+00
    outer loop
      vertex -3.389921e+01 -1.902131e+01 6.197278e+00
      vertex -3.389921e+01 -1.597329e+01 6.197278e+00
      vertex -2.828766e+01 -1.597329e+01 6.197278e+00
    endloop
  endfacet
  facet normal 1.000000e+00 0.000000e+00 0.000000e+00
    outer loop
      vertex -2.828766e+01 -1.597329e+01 3.149281e+00
      vertex -2.828766e+01 -1.902131e+01 3.149281e+00
      vertex -2.828766e+01 -2.067230e+01 1.498279e+00
    endloop
  endfacet
  facet normal 1.000000e+00 0.000000e+00 0.000000e+00
    outer loop
      vertex -2.828766e+01 -2.067230e+01 1.498279e+00
      vertex -2.828766e+01 -1.432230e+01 1.498279e+00
      vertex -2.828766e+01 -1.597329e+01 3.149281e+00
    endloop
  endfacet
  facet normal 0.000000e+00 -1.836970e-16 1.000000e+00
    outer loop
      vertex -2.828766e+01 -1.597329e+01 3.149281e+00
      vertex -3.389921e+01 -1.597329e+01 3.149281e+00
      vertex -3.389921e+01 -1.902131e+01 3.149281e+00
    endloop
  endfacet
  facet normal 0.000000e+00 -1.836970e-16 1.000000e+00
    outer loop
      vertex -3.389921e+01 -1.902131e+01 3.149281e+00
      vertex -2.828766e+01 -1.902131e+01 3.149281e+00
      vertex -2.828766e+01 -1.597329e+01 3.149281e+00
    endloop
  endfacet
  facet normal 1.000000e+00 1.834001e-06 3.369005e-22
    outer loop
      vertex -2.828766e+01 -1.902131e+01 3.149281e+00
      vertex -2.828766e+01 -1.902131e+01 6.197278e+00
      vertex -2.828765e+01 -2.067230e+01 7.848276e+00
    endloop
  endfacet
  facet normal 1.000000e+00 4.768409e-07 -4.768374e-07
    outer loop
      vertex -2.828765e+01 -2.067230e+01 7.848276e+00
      vertex -2.828766e+01 -2.067230e+01 1.498279e+00
      vertex -2.828766e+01 -1.902131e+01 3.149281e+00
    endloop
  endfacet
  facet normal -1.000000e+00 -0.000000e+00 0.000000e+00
    outer loop
      vertex -3.389921e+01 -1.597329e+01 3.149281e+00
      vertex -3.389921e+01 -1.597329e+01 6.197278e+00
      vertex -3.389921e+01 -1.432230e+01 7.848279e+00
    endloop
  endfacet
  facet normal -1.000000e+00 -0.000000e+00 0.000000e+00
    outer loop
      vertex -3.389921e+01 -1.432230e+01 7.848279e+00
      vertex -3.389921e+01 -1.432230e+01 1.498279e+00
      vertex -3.389921e+01 -1.597329e+01 3.149281e+00
    endloop
  endfacet
  facet normal 0.000000e+00 -1.000000e+00 -1.836970e-16
    outer loop
      vertex -2.828766e+01 -1.597329e+01 6.197278e+00
      vertex -3.389921e+01 -1.597329e+01 6.197278e+00
      vertex -3.389921e+01 -1.597329e+01 3.149281e+00
    endloop
  endfacet
  facet normal 0.000000e+00 -1.000000e+00 -1.836970e-16
    outer loop
      vertex -3.389921e+01 -1.597329e+01 3.149281e+00
      vertex -2.828766e+01 -1.597329e+01 3.149281e+00
      vertex -2.828766e+01 -1.597329e+01 6.197278e+00
    endloop
  endfacet
  facet normal 0.000000e+00 1.000000e+00 1.836970e-16
    outer loop
      vertex -2.828766e+01 -1.902131e+01 6.197278e+00
      vertex -2.828766e+01 -1.902131e+01 3.149281e+00
      vertex -3.389921e+01 -1.902131e+01 3.149281e+00
    endloop
  endfacet
  facet normal 0.000000e+00 1.000000e+00 1.836970e-16
    outer loop
      vertex -3.389921e+01 -1.902131e+01 3.149281e+00
      vertex -3.389921e+01 -1.902131e+01 6.197278e+00
      vertex -2.828766e+01 -1.902131e+01 6.197278e+00
    endloop
  endfacet
  facet normal 0.000000e+00 1.000000e+00 1.836970e-16
    outer loop
      vertex 3.387344e+01 -1.432230e+01 7.848276e+00
      vertex 3.387344e+01 -1.432230e+01 1.498279e+00
      vertex 2.826189e+01 -1.432230e+01 1.498279e+00
    endloop
  endfacet
  facet normal 0.000000e+00 1.000000e+00 1.836970e-16
    outer loop
      vertex 2.826189e+01 -1.432230e+01 1.498279e+00
      vertex 2.826189e+01 -1.432230e+01 7.848279e+00
      vertex 3.387344e+01 -1.432230e+01 7.848276e+00
    endloop
  endfacet
  facet normal 0.000000e+00 -1.000000e+00 -1.836970e-16
    outer loop
      vertex 3.387344e+01 -2.067230e+01 7.848276e+00
      vertex 2.826189e+01 -2.067230e+01 7.848279e+00
      vertex 2.826188e+01 -2.067230e+01 1.498279e+00
    endloop
  endfacet
  facet normal 0.000000e+00 -1.000000e+00 -1.836970e-16
    outer loop
      vertex 2.826188e+01 -2.067230e+01 1.498279e+00
      vertex 3.387344e+01 -2.067230e+01 1.498279e+00
      vertex 3.387344e+01 -2.067230e+01 7.848276e+00
    endloop
  endfacet
  facet normal 0.000000e+00 1.836970e-16 -1.000000e+00
    outer loop
      vertex 3.387344e+01 -1.432230e+01 1.498279e+00
      vertex 3.387344e+01 -2.067230e+01 1.498279e+00
      vertex 2.826188e+01 -2.067230e+01 1.498279e+00
    endloop
  endfacet
  facet normal 0.000000e+00 1.836970e-16 -1.000000e+00
    outer loop
      vertex 2.826188e+01 -2.067230e+01 1.498279e+00
      vertex 2.826189e+01 -1.432230e+01 1.498279e+00
      vertex 3.387344e+01 -1.432230e+01 1.498279e+00
    endloop
  endfacet
  facet normal 5.395865e-07 2.571112e-13 1.000000e+00
    outer loop
      vertex 3.387344e+01 -2.067230e+01 7.848276e+00
      vertex 3.387344e+01 -1.432230e+01 7.848276e+00
      vertex 2.826189e+01 -1.432230e+01 7.848279e+00
    endloop
  endfacet
  facet normal 5.395862e-07 -1.836970e-16 1.000000e+00
    outer loop
      vertex 2.826189e+01 -1.432230e+01 7.848279e+00
      vertex 2.826189e+01 -2.067230e+01 7.848279e+00
      vertex 3.387344e+01 -2.067230e+01 7.848276e+00
    endloop
  endfacet
  facet normal 1.000000e+00 4.768372e-07 -4.768345e-07
    outer loop
      vertex 3.387344e+01 -1.597329e+01 6.197278e+00
      vertex 3.387344e+01 -1.432230e+01 7.848276e+00
      vertex 3.387344e+01 -2.067230e+01 7.848276e+00
    endloop
  endfacet
  facet normal 1.000000e+00 3.368986e-22 -1.833991e-06
    outer loop
      vertex 3.387344e+01 -2.067230e+01 7.848276e+00
      vertex 3.387344e+01 -1.902131e+01 6.197278e+00
      vertex 3.387344e+01 -1.597329e+01 6.197278e+00
    endloop
  endfacet
  facet normal -1.000000e+00 4.768372e-07 1.357154e-06
    outer loop
      vertex 2.826189e+01 -1.432230e+01 1.498279e+00
      vertex 2.826188e+01 -2.067230e+01 1.498279e+00
      vertex 2.826189e+01 -1.902131e+01 3.149281e+00
    endloop
  endfacet
  facet normal -1.000000e+00 0.000000e+00 0.000000e+00
    outer loop
      vertex 2.826189e+01 -1.902131e+01 3.149281e+00
      vertex 2.826189e+01 -1.597329e+01 3.149281e+00
      vertex 2.826189e+01 -1.432230e+01 1.498279e+00
    endloop
  endfacet
  facet normal -1.000000e+00 4.768407e-07 4.768372e-07
    outer loop
      vertex 2.826188e+01 -2.067230e+01 1.498279e+00
      vertex 2.826189e+01 -2.067230e+01 7.848279e+00
      vertex 2.826189e+01 -1.902131e+01 6.197278e+00
    endloop
  endfacet
  facet normal -1.000000e+00 1.834001e-06 3.369005e-22
    outer loop
      vertex 2.826189e+01 -1.902131e+01 6.197278e+00
      vertex 2.826189e+01 -1.902131e+01 3.149281e+00
      vertex 2.826188e+01 -2.067230e+01 1.498279e+00
    endloop
  endfacet
  facet normal 1.000000e+00 0.000000e+00 0.000000e+00
    outer loop
      vertex 3.387344e+01 -1.432230e+01 1.498279e+00
      vertex 3.387344e+01 -1.432230e+01 7.848276e+00
      vertex 3.387344e+01 -1.597329e+01 6.197278e+00
    endloop
  endfacet
  facet normal 1.000000e+00 0.000000e+00 0.000000e+00
    outer loop
      vertex 3.387344e+01 -1.597329e+01 6.197278e+00
      vertex 3.387344e+01 -1.597329e+01 3.149281e+00
      vertex 3.387344e+01 -1.432230e+01 1.498279e+00
    endloop
  endfacet
  facet normal -1.000000e+00 -0.000000e+00 0.000000e+00
    outer loop
      vertex 2.826189e+01 -1.432230e+01 7.848279e+00
      vertex 2.826189e+01 -1.597329e+01 6.197278e+00
      vertex 2.826189e+01 -1.902131e+01 6.197278e+00
    endloop
  endfacet
  facet normal -1.000000e+00 -0.000000e+00 0.000000e+00
    outer loop
      vertex 2.826189e+01 -1.902131e+01 6.197278e+00
      vertex 2.826189e+01 -2.067230e+01 7.848279e+00
      vertex 2.826189e+01 -1.432230e+01 7.848279e+00
    endloop
  endfacet
  facet normal 0.000000e+00 1.836970e-16 -1.000000e+00
    outer loop
      vertex 3.387344e+01 -1.597329e+01 6.197278e+00
      vertex 3.387344e+01 -1.902131e+01 6.197278e+00
      vertex 2.826189e+01 -1.902131e+01 6.197278e+00
    endloop
  endfacet
  facet normal 0.000000e+00 1.836970e-16 -1.000000e+00
    outer loop
      vertex 2.826189e+01 -1.902131e+01 6.197278e+00
      vertex 2.826189e+01 -1.597329e+01 6.197278e+00
      vertex 3.387344e+01 -1.597329e+01 6.197278e+00
    endloop
  endfacet
  facet normal 1.000000e+00 0.000000e+00 0.000000e+00
    outer loop
      vertex 3.387344e+01 -1.597329e+01 3.149281e+00
      vertex 3.387344e+01 -1.902131e+01 3.149281e+00
      vertex 3.387344e+01 -2.067230e+01 1.498279e+00
    endloop
  endfacet
  facet normal 1.000000e+00 0.000000e+00 0.000000e+00
    outer loop
      vertex 3.387344e+01 -2.067230e+01 1.498279e+00
      vertex 3.387344e+01 -1.432230e+01 1.498279e+00
      vertex 3.387344e+01 -1.597329e+01 3.149281e+00
    endloop
  endfacet
  facet normal 0.000000e+00 -1.836970e-16 1.000000e+00
    outer loop
      vertex 3.387344e+01 -1.597329e+01 3.149281e+00
      vertex 2.826189e+01 -1.597329e+01 3.149281e+00
      vertex 2.826189e+01 -1.902131e+01 3.149281e+00
    endloop
  endfacet
  facet normal 0.000000e+00 -1.836970e-16 1.000000e+00
    outer loop
      vertex 2.826189e+01 -1.902131e+01 3.149281e+00
      vertex 3.387344e+01 -1.902131e+01 3.149281e+00
      vertex 3.387344e+01 -1.597329e+01 3.149281e+00
    endloop
  endfacet
  facet normal 1.000000e+00 1.834001e-06 3.369005e-22
    outer loop
      vertex 3.387344e+01 -1.902131e+01 3.149281e+00
      vertex 3.387344e+01 -1.902131e+01 6.197278e+00
      vertex 3.387344e+01 -2.067230e+01 7.848276e+00
    endloop
  endfacet
  facet normal 1.000000e+00 4.768409e-07 -4.768374e-07
    outer loop
      vertex 3.387344e+01 -2.067230e+01 7.848276e+00
      vertex 3.387344e+01 -2.067230e+01 1.498279e+00
      vertex 3.387344e+01 -1.902131e+01 3.149281e+00
    endloop
  endfacet
  facet normal -1.000000e+00 -0.000000e+00 0.000000e+00
    outer loop
      vertex 2.826189e+01 -1.597329e+01 3.149281e+00
      vertex 2.826189e+01 -1.597329e+01 6.197278e+00
      vertex 2.826189e+01 -1.432230e+01 7.848279e+00
    endloop
  endfacet
  facet normal -1.000000e+00 -0.000000e+00 0.000000e+00
    outer loop
      vertex 2.826189e+01 -1.432230e+01 7.848279e+00
      vertex 2.826189e+01 -1.432230e+01 1.498279e+00
      vertex 2.826189e+01 -1.597329e+01 3.149281e+00
    endloop
  endfacet
  facet normal 0.000000e+00 -1.000000e+00 -1.836970e-16
    outer loop
      vertex 3.387344e+01 -1.597329e+01 6.197278e+00
      vertex 2.826189e+01 -1.597329e+01 6.197278e+00
      vertex 2.826189e+01 -1.597329e+01 3.149281e+00
    endloop
  endfacet
  facet normal 0.000000e+00 -1.000000e+00 -1.836970e-16
    outer loop
      vertex 2.826189e+01 -1.597329e+01 3.149281e+00
      vertex 3.387344e+01 -1.597329e+01 3.149281e+00
      vertex 3.387344e+01 -1.597329e+01 6.197278e+00
    endloop
  endfacet
  facet normal 0.000000e+00 1.000000e+00 1.836970e-16
    outer loop
      vertex 3.387344e+01 -1.902131e+01 6.197278e+00
      vertex 3.387344e+01 -1.902131e+01 3.149281e+00
      vertex 2.826189e+01 -1.902131e+01 3.149281e+00
    endloop
  endfacet
  facet normal 0.000000e+00 1.000000e+00 1.836970e-16
    outer loop
      vertex 2.826189e+01 -1.902131e+01 3.149281e+00
      vertex 2.826189e+01 -1.902131e+01 6.197278e+00
      vertex 3.387344e+01 -1.902131e+01 6.197278e+00
    endloop
  endfacet
endsolid Default
